<svg viewBox="0 0 1294.07 235.18" xmlns="http://www.w3.org/2000/svg"><g fill="#fff" transform="translate(-303.33 -409.38)"><path d="m306.79 431.78s43.29 48.22 51.31 57.22 29.68 33.16 36 40.15v93.57c0 8-1.38 18-4.87 21.8 0 0-22.37-13.42-37.73-29.14-9.49-9.71-34-39.67-41.55-67.73-8.4-31.03-8.05-83.4-3.16-115.87z"/><path d="m502.34 431.78s-43.29 48.22-51.34 57.22-29.66 33.16-35.95 40.15v93.57c0 8 1.38 18 4.87 21.8 0 0 22.36-13.42 37.72-29.14 9.5-9.71 34-39.67 41.55-67.73 8.39-31.03 8.04-83.4 3.15-115.87z"/><path d="m404.44 512.21c15.05-11 32.47-28.21 46.14-45.17 33.29-41.26 36.5-52.71 36.5-52.71s-18.16-4.95-82.54-4.95c-67.69 0-82.94 4.95-82.94 4.95s3.21 11.45 36.5 52.71c13.68 17 31.1 34.19 46.13 45.17z"/><path d="m673.6 543.71v55.2h-41v-53.8l-46.6-73.8h45.2l16.4 25.4a81.8 81.8 0 0 1 6.4 12.6h.4a73.15 73.15 0 0 1 6.6-12.6l16.4-25.4h42.2z"/><path d="m800 602.51c-36.6 0-69.8-26.6-69.8-67.4s33.2-67.4 69.8-67.4 69.8 26.6 69.8 67.4-33.2 67.4-69.8 67.4zm0-96.6c-14.8 0-26.4 13.6-26.4 29.6s11.6 29.2 26.4 29.2 26.4-13.2 26.4-29.2-11.6-29.6-26.4-29.6z"/><path d="m960.8 602.11c-31.2 0-58.6-18-58.6-49.6v-81.2h42.6v78.6c0 11.4 9.2 15.8 16.4 15.8s16.4-4.4 16.4-15.6v-78.8h41.8v81.2c0 31.6-27.4 49.6-58.6 49.6z"/><path d="m1154.2 598.91-40.6-44.2c-7-7.6-14-15.8-19.2-22.4l-.4.2c.4 6.4.8 15.2.8 21.8v44.6h-40.2v-127.6h36.8l33 35.6c5 5.4 11.6 13 15.6 18.4l.4-.2c-.4-5.6-1-11.2-1-17.8v-36h40.4v127.6z"/><path d="m1283.6 602.51c-36 0-71.4-23.2-71.4-67.4 0-43.8 35.8-67.4 71.4-67.4 17.8 0 34.2 5.2 42 10.6l-8.2 34.2c-6.4-4.4-17.8-7.8-29.6-7.8-21.6 0-33.6 14.8-33.6 32 0 14.6 11 29.8 31 29.8a24.55 24.55 0 0 0 7.8-1v-12h-14.8v-32.2h53.4v68.6c-9.4 7.4-25.4 12.6-48 12.6z"/><path d="m1365.8 598.91v-127.6h77.79v34.2h-36.4v12h29.21v35.2h-29.21v12h41.2v34.2z"/><path d="m1548 598.91-28.2-44.4h-1.6v44.4h-40.6v-127.6h54.8c25.79 0 44 17.8 44 41.6 0 12.8-7.4 26.2-16.6 31l37.6 55zm-21.2-94.2h-8.6v18.4h8.6c4.61 0 9.8-3 9.8-9.2s-5.2-9.2-9.81-9.2z"/></g></svg>
